<svg width="444" height="30" viewBox="0 0 444 30" fill="none" xmlns="http://www.w3.org/2000/svg">
<path d="M19.1818 10.7891C18.9979 10.1496 18.7395 9.58463 18.4066 9.0941C18.0737 8.59482 17.6664 8.17436 17.1847 7.83274C16.7116 7.48236 16.1686 7.2152 15.5554 7.03125C14.951 6.8473 14.2809 6.75533 13.5451 6.75533C12.1699 6.75533 10.9611 7.09695 9.91868 7.78018C8.88506 8.46342 8.07919 9.45762 7.50107 10.7628C6.92294 12.0592 6.63388 13.6446 6.63388 15.5192C6.63388 17.3937 6.91856 18.9879 7.48793 20.3018C8.05729 21.6158 8.86316 22.6187 9.90554 23.3107C10.9479 23.994 12.1786 24.3356 13.5977 24.3356C14.8853 24.3356 15.9846 24.1078 16.8956 23.6523C17.8153 23.1881 18.5161 22.5355 18.9979 21.6946C19.4884 20.8537 19.7337 19.8595 19.7337 18.712L20.8899 18.8828H13.9524V14.5994H25.2127V17.9893C25.2127 20.3544 24.7134 22.3866 23.7148 24.0859C22.7163 25.7765 21.341 27.0817 19.5891 28.0014C17.8372 28.9124 15.8313 29.3679 13.5714 29.3679C11.0487 29.3679 8.83251 28.8117 6.92294 27.6992C5.01338 26.578 3.52427 24.9882 2.45561 22.9297C1.39572 20.8625 0.865767 18.4098 0.865767 15.5717C0.865767 13.3906 1.18111 11.446 1.81179 9.73792C2.45123 8.02107 3.3447 6.567 4.49219 5.37571C5.63968 4.18442 6.9755 3.27782 8.49964 2.65589C10.0238 2.03397 11.675 1.72301 13.4531 1.72301C14.9773 1.72301 16.3963 1.94638 17.7102 2.39311C19.0241 2.83108 20.1892 3.45301 21.2053 4.25888C22.2301 5.06475 23.0666 6.02391 23.7148 7.13636C24.363 8.24006 24.7791 9.45762 24.9631 10.7891H19.1818ZM223.391 2.09091V29H217.702V2.09091H223.391Z" fill="#18CFD7"/>
<path d="M42.3232 20.407V8.81818H47.9205V29H42.5466V25.3342H42.3364C41.8809 26.5167 41.1232 27.4671 40.0633 28.1854C39.0122 28.9036 37.7289 29.2628 36.2135 29.2628C34.8646 29.2628 33.6776 28.9562 32.6528 28.343C31.6279 27.7299 30.8264 26.8583 30.2483 25.7283C29.6789 24.5984 29.3899 23.245 29.3811 21.6683V8.81818H34.9784V20.6697C34.9872 21.861 35.3069 22.8027 35.9376 23.4947C36.5683 24.1867 37.4136 24.5327 38.4735 24.5327C39.1479 24.5327 39.7786 24.3794 40.3655 24.0728C40.9524 23.7575 41.4254 23.2932 41.7845 22.68C42.1524 22.0669 42.332 21.3092 42.3232 20.407ZM58.1527 29.381C56.8651 29.381 55.7176 29.1577 54.7102 28.7109C53.7029 28.2554 52.9058 27.5853 52.3189 26.7006C51.7408 25.8072 51.4517 24.6947 51.4517 23.3633C51.4517 22.2421 51.6576 21.3004 52.0692 20.5384C52.4809 19.7763 53.0415 19.1631 53.7511 18.6989C54.4606 18.2346 55.2665 17.8842 56.1687 17.6477C57.0797 17.4112 58.0344 17.2448 59.033 17.1484C60.2068 17.0258 61.1528 16.9119 61.8711 16.8068C62.5894 16.6929 63.1106 16.5265 63.4347 16.3075C63.7588 16.0885 63.9208 15.7644 63.9208 15.3352V15.2564C63.9208 14.4242 63.658 13.7804 63.1325 13.3249C62.6156 12.8694 61.8799 12.6417 60.9251 12.6417C59.9177 12.6417 59.1162 12.8651 58.5206 13.3118C57.925 13.7498 57.5308 14.3016 57.3381 14.9673L52.1612 14.5469C52.424 13.3205 52.9408 12.2607 53.7116 11.3672C54.4825 10.465 55.4767 9.77296 56.6942 9.29119C57.9206 8.80066 59.3396 8.5554 60.9514 8.5554C62.0726 8.5554 63.1456 8.68679 64.1705 8.94957C65.2041 9.21236 66.1194 9.61967 66.9165 10.1715C67.7224 10.7234 68.3575 11.4329 68.8217 12.3001C69.286 13.1585 69.5181 14.1877 69.5181 15.3878V29H64.2099V26.2013H64.0522C63.7281 26.832 63.2945 27.3883 62.7514 27.87C62.2083 28.343 61.5558 28.7153 60.7937 28.9869C60.0316 29.2496 59.1513 29.381 58.1527 29.381ZM59.7557 25.5181C60.5791 25.5181 61.3061 25.3561 61.9368 25.032C62.5675 24.6991 63.0624 24.2524 63.4215 23.6918C63.7807 23.1312 63.9602 22.4961 63.9602 21.7866V19.6449C63.785 19.7588 63.5442 19.8639 63.2376 19.9602C62.9397 20.0478 62.6025 20.131 62.2259 20.2099C61.8492 20.2799 61.4725 20.3456 61.0959 20.407C60.7192 20.4595 60.3776 20.5077 60.071 20.5515C59.4141 20.6478 58.8403 20.8011 58.3498 21.0114C57.8593 21.2216 57.4782 21.5063 57.2067 21.8654C56.9351 22.2158 56.7994 22.6538 56.7994 23.1793C56.7994 23.9414 57.0753 24.5239 57.6271 24.9268C58.1877 25.321 58.8973 25.5181 59.7557 25.5181ZM73.8606 29V8.81818H79.2871V12.3395H79.4973C79.8652 11.0869 80.4828 10.1409 81.35 9.50142C82.2172 8.85322 83.2157 8.52912 84.3457 8.52912C84.626 8.52912 84.9282 8.54664 85.2523 8.58167C85.5764 8.61671 85.8611 8.66489 86.1064 8.72621V13.6928C85.8436 13.614 85.4801 13.5439 85.0158 13.4826C84.5516 13.4213 84.1267 13.3906 83.7413 13.3906C82.9179 13.3906 82.1821 13.5702 81.5339 13.9293C80.8945 14.2797 80.3864 14.7702 80.0098 15.4009C79.6419 16.0316 79.4579 16.7586 79.4579 17.582V29H73.8606ZM95.4976 29.3285C93.9647 29.3285 92.5763 28.9343 91.3325 28.146C90.0974 27.3488 89.1163 26.1795 88.3893 24.6378C87.671 23.0874 87.3119 21.1866 87.3119 18.9354C87.3119 16.6229 87.6842 14.7002 88.4287 13.1673C89.1733 11.6256 90.1631 10.4737 91.3982 9.71165C92.642 8.94081 94.0041 8.5554 95.4845 8.5554C96.6144 8.5554 97.5561 8.74811 98.3094 9.13352C99.0715 9.51018 99.6846 9.98319 100.149 10.5526C100.622 11.1132 100.981 11.665 101.226 12.2081H101.397V2.09091H106.981V29H101.463V25.7678H101.226C100.964 26.3284 100.591 26.8846 100.109 27.4364C99.6365 27.9795 99.0189 28.4306 98.2568 28.7898C97.5035 29.1489 96.5838 29.3285 95.4976 29.3285ZM97.2714 24.8743C98.1736 24.8743 98.9357 24.629 99.5576 24.1385C100.188 23.6392 100.67 22.9428 101.003 22.0494C101.345 21.1559 101.515 20.1091 101.515 18.9091C101.515 17.709 101.349 16.6667 101.016 15.782C100.683 14.8973 100.201 14.214 99.5708 13.7322C98.9401 13.2505 98.1736 13.0096 97.2714 13.0096C96.3517 13.0096 95.5764 13.2592 94.9458 13.7585C94.3151 14.2578 93.8377 14.9498 93.5136 15.8345C93.1895 16.7192 93.0274 17.7441 93.0274 18.9091C93.0274 20.0829 93.1895 21.1209 93.5136 22.0231C93.8464 22.9165 94.3238 23.6173 94.9458 24.1254C95.5764 24.6246 96.3517 24.8743 97.2714 24.8743ZM111.583 29V8.81818H117.181V29H111.583ZM114.395 6.21662C113.563 6.21662 112.849 5.9407 112.253 5.38885C111.666 4.82824 111.373 4.15814 111.373 3.37855C111.373 2.60772 111.666 1.94638 112.253 1.39453C112.849 0.833924 113.563 0.553621 114.395 0.553621C115.227 0.553621 115.937 0.833924 116.524 1.39453C117.119 1.94638 117.417 2.60772 117.417 3.37855C117.417 4.15814 117.119 4.82824 116.524 5.38885C115.937 5.9407 115.227 6.21662 114.395 6.21662ZM127.419 29.381C126.132 29.381 124.984 29.1577 123.977 28.7109C122.969 28.2554 122.172 27.5853 121.585 26.7006C121.007 25.8072 120.718 24.6947 120.718 23.3633C120.718 22.2421 120.924 21.3004 121.336 20.5384C121.748 19.7763 122.308 19.1631 123.018 18.6989C123.727 18.2346 124.533 17.8842 125.435 17.6477C126.346 17.4112 127.301 17.2448 128.3 17.1484C129.473 17.0258 130.419 16.9119 131.138 16.8068C131.856 16.6929 132.377 16.5265 132.701 16.3075C133.025 16.0885 133.187 15.7644 133.187 15.3352V15.2564C133.187 14.4242 132.925 13.7804 132.399 13.3249C131.882 12.8694 131.146 12.6417 130.192 12.6417C129.184 12.6417 128.383 12.8651 127.787 13.3118C127.192 13.7498 126.797 14.3016 126.605 14.9673L121.428 14.5469C121.691 13.3205 122.207 12.2607 122.978 11.3672C123.749 10.465 124.743 9.77296 125.961 9.29119C127.187 8.80066 128.606 8.5554 130.218 8.5554C131.339 8.5554 132.412 8.68679 133.437 8.94957C134.471 9.21236 135.386 9.61967 136.183 10.1715C136.989 10.7234 137.624 11.4329 138.088 12.3001C138.553 13.1585 138.785 14.1877 138.785 15.3878V29H133.476V26.2013H133.319C132.995 26.832 132.561 27.3883 132.018 27.87C131.475 28.343 130.822 28.7153 130.06 28.9869C129.298 29.2496 128.418 29.381 127.419 29.381ZM129.022 25.5181C129.846 25.5181 130.573 25.3561 131.203 25.032C131.834 24.6991 132.329 24.2524 132.688 23.6918C133.047 23.1312 133.227 22.4961 133.227 21.7866V19.6449C133.052 19.7588 132.811 19.8639 132.504 19.9602C132.206 20.0478 131.869 20.131 131.492 20.2099C131.116 20.2799 130.739 20.3456 130.362 20.407C129.986 20.4595 129.644 20.5077 129.338 20.5515C128.681 20.6478 128.107 20.8011 127.616 21.0114C127.126 21.2216 126.745 21.5063 126.473 21.8654C126.202 22.2158 126.066 22.6538 126.066 23.1793C126.066 23.9414 126.342 24.5239 126.894 24.9268C127.454 25.321 128.164 25.5181 129.022 25.5181ZM148.725 17.3324V29H143.127V8.81818H148.462V12.3789H148.698C149.145 11.2051 149.894 10.2766 150.945 9.59339C151.996 8.9014 153.271 8.5554 154.769 8.5554C156.17 8.5554 157.392 8.86198 158.434 9.47514C159.477 10.0883 160.287 10.9643 160.865 12.103C161.443 13.233 161.732 14.5819 161.732 16.1499V29H156.135V17.1484C156.144 15.9134 155.828 14.9498 155.189 14.2578C154.55 13.5571 153.669 13.2067 152.548 13.2067C151.795 13.2067 151.129 13.3687 150.551 13.6928C149.982 14.0169 149.535 14.4899 149.211 15.1119C148.895 15.725 148.733 16.4652 148.725 17.3324ZM175.341 29.3942C173.265 29.3942 171.478 28.9737 169.98 28.1328C168.491 27.2831 167.344 26.0831 166.538 24.5327C165.732 22.9735 165.329 21.1296 165.329 19.0011C165.329 16.9251 165.732 15.1031 166.538 13.5352C167.344 11.9672 168.478 10.7453 169.941 9.86932C171.413 8.99337 173.138 8.5554 175.118 8.5554C176.449 8.5554 177.689 8.77 178.836 9.19922C179.993 9.61967 181 10.2547 181.858 11.1044C182.725 11.9541 183.4 13.0227 183.882 14.3104C184.364 15.5893 184.604 17.0871 184.604 18.804V20.3413H167.563V16.8725H179.336C179.336 16.0666 179.16 15.3527 178.81 14.7308C178.46 14.1089 177.973 13.6228 177.352 13.2724C176.738 12.9132 176.025 12.7337 175.21 12.7337C174.36 12.7337 173.607 12.9308 172.95 13.3249C172.302 13.7103 171.794 14.2315 171.426 14.8885C171.058 15.5367 170.87 16.2594 170.861 17.0565V20.3544C170.861 21.353 171.045 22.2158 171.413 22.9428C171.789 23.6699 172.319 24.2305 173.002 24.6246C173.686 25.0188 174.496 25.2159 175.433 25.2159C176.055 25.2159 176.625 25.1283 177.141 24.9531C177.658 24.7779 178.1 24.5152 178.468 24.1648C178.836 23.8144 179.117 23.3852 179.309 22.8771L184.486 23.2188C184.223 24.4626 183.685 25.5488 182.87 26.4773C182.064 27.397 181.022 28.1153 179.743 28.6321C178.473 29.1402 177.006 29.3942 175.341 29.3942ZM205.049 14.5732L199.925 14.8885C199.837 14.4505 199.649 14.0563 199.36 13.706C199.071 13.3468 198.69 13.0621 198.217 12.8519C197.752 12.6329 197.196 12.5234 196.548 12.5234C195.681 12.5234 194.949 12.7074 194.354 13.0753C193.758 13.4344 193.46 13.9162 193.46 14.5206C193.46 15.0024 193.653 15.4097 194.038 15.7425C194.424 16.0754 195.085 16.3426 196.022 16.544L199.675 17.2798C201.637 17.6828 203.1 18.331 204.064 19.2244C205.027 20.1179 205.509 21.2917 205.509 22.7457C205.509 24.0684 205.119 25.229 204.339 26.2276C203.569 27.2262 202.509 28.0058 201.16 28.5664C199.82 29.1183 198.274 29.3942 196.522 29.3942C193.85 29.3942 191.721 28.8379 190.136 27.7255C188.559 26.6043 187.635 25.0801 187.364 23.1531L192.869 22.864C193.035 23.6786 193.438 24.3005 194.078 24.7298C194.717 25.1502 195.536 25.3604 196.535 25.3604C197.516 25.3604 198.304 25.1721 198.9 24.7955C199.504 24.41 199.811 23.9151 199.82 23.3107C199.811 22.8027 199.596 22.3866 199.176 22.0625C198.755 21.7296 198.107 21.4756 197.231 21.3004L193.736 20.604C191.765 20.2099 190.298 19.5266 189.335 18.5543C188.38 17.582 187.902 16.3426 187.902 14.8359C187.902 13.5395 188.253 12.4227 188.953 11.4854C189.663 10.5482 190.657 9.82552 191.936 9.31747C193.224 8.80942 194.73 8.5554 196.456 8.5554C199.005 8.5554 201.011 9.0941 202.474 10.1715C203.945 11.2489 204.804 12.7161 205.049 14.5732ZM233.564 17.3324V29H227.967V8.81818H233.302V12.3789H233.538C233.985 11.2051 234.734 10.2766 235.785 9.59339C236.836 8.9014 238.111 8.5554 239.608 8.5554C241.01 8.5554 242.232 8.86198 243.274 9.47514C244.317 10.0883 245.127 10.9643 245.705 12.103C246.283 13.233 246.572 14.5819 246.572 16.1499V29H240.975V17.1484C240.984 15.9134 240.668 14.9498 240.029 14.2578C239.389 13.5571 238.509 13.2067 237.388 13.2067C236.635 13.2067 235.969 13.3687 235.391 13.6928C234.821 14.0169 234.375 14.4899 234.051 15.1119C233.735 15.725 233.573 16.4652 233.564 17.3324ZM261.837 8.81818V13.0227H249.381V8.81818H261.837ZM252.232 29V7.35973C252.232 5.8969 252.517 4.68371 253.086 3.72017C253.664 2.75663 254.452 2.03397 255.451 1.5522C256.45 1.07043 257.584 0.829544 258.854 0.829544C259.712 0.829544 260.496 0.89524 261.206 1.02663C261.924 1.15802 262.459 1.27628 262.809 1.38139L261.81 5.58594C261.591 5.51586 261.32 5.45016 260.996 5.38885C260.68 5.32753 260.356 5.29688 260.023 5.29688C259.2 5.29688 258.626 5.48958 258.302 5.875C257.978 6.25166 257.816 6.7816 257.816 7.46484V29H252.232ZM273.652 29.3942C271.611 29.3942 269.846 28.9606 268.357 28.0934C266.877 27.2174 265.734 25.9999 264.928 24.4407C264.122 22.8728 263.719 21.0552 263.719 18.9879C263.719 16.9032 264.122 15.0812 264.928 13.522C265.734 11.9541 266.877 10.7365 268.357 9.86932C269.846 8.99337 271.611 8.5554 273.652 8.5554C275.693 8.5554 277.454 8.99337 278.934 9.86932C280.423 10.7365 281.571 11.9541 282.377 13.522C283.182 15.0812 283.585 16.9032 283.585 18.9879C283.585 21.0552 283.182 22.8728 282.377 24.4407C281.571 25.9999 280.423 27.2174 278.934 28.0934C277.454 28.9606 275.693 29.3942 273.652 29.3942ZM273.678 25.0582C274.607 25.0582 275.382 24.7955 276.004 24.2699C276.626 23.7356 277.095 23.0085 277.41 22.0888C277.734 21.169 277.896 20.1223 277.896 18.9485C277.896 17.7747 277.734 16.728 277.41 15.8082C277.095 14.8885 276.626 14.1615 276.004 13.6271C275.382 13.0928 274.607 12.8256 273.678 12.8256C272.741 12.8256 271.953 13.0928 271.313 13.6271C270.683 14.1615 270.205 14.8885 269.881 15.8082C269.566 16.728 269.408 17.7747 269.408 18.9485C269.408 20.1223 269.566 21.169 269.881 22.0888C270.205 23.0085 270.683 23.7356 271.313 24.2699C271.953 24.7955 272.741 25.0582 273.678 25.0582ZM287.225 29V8.81818H292.651V12.3395H292.862C293.229 11.0869 293.847 10.1409 294.714 9.50142C295.581 8.85322 296.58 8.52912 297.71 8.52912C297.99 8.52912 298.292 8.54664 298.617 8.58167C298.941 8.61671 299.225 8.66489 299.471 8.72621V13.6928C299.208 13.614 298.844 13.5439 298.38 13.4826C297.916 13.4213 297.491 13.3906 297.106 13.3906C296.282 13.3906 295.546 13.5702 294.898 13.9293C294.259 14.2797 293.751 14.7702 293.374 15.4009C293.006 16.0316 292.822 16.7586 292.822 17.582V29H287.225ZM302.365 29V8.81818H307.699V12.3789H307.936C308.356 11.1964 309.057 10.2635 310.038 9.58025C311.019 8.89702 312.193 8.5554 313.559 8.5554C314.943 8.5554 316.121 8.9014 317.094 9.59339C318.066 10.2766 318.714 11.2051 319.038 12.3789H319.248C319.66 11.2227 320.405 10.2985 321.482 9.60653C322.568 8.90578 323.852 8.5554 325.332 8.5554C327.215 8.5554 328.744 9.15542 329.917 10.3555C331.1 11.5468 331.691 13.2373 331.691 15.4272V29H326.107V16.5309C326.107 15.4097 325.809 14.5688 325.214 14.0082C324.618 13.4476 323.873 13.1673 322.98 13.1673C321.964 13.1673 321.171 13.4914 320.602 14.1396C320.032 14.779 319.748 15.6243 319.748 16.6754V29H314.321V16.4126C314.321 15.4228 314.037 14.6345 313.467 14.0476C312.907 13.4607 312.166 13.1673 311.247 13.1673C310.625 13.1673 310.064 13.3249 309.565 13.6403C309.074 13.9469 308.684 14.3804 308.395 14.9411C308.106 15.4929 307.962 16.1411 307.962 16.8857V29H302.365ZM341.868 29.381C340.58 29.381 339.432 29.1577 338.425 28.7109C337.418 28.2554 336.621 27.5853 336.034 26.7006C335.456 25.8072 335.167 24.6947 335.167 23.3633C335.167 22.2421 335.372 21.3004 335.784 20.5384C336.196 19.7763 336.756 19.1631 337.466 18.6989C338.175 18.2346 338.981 17.8842 339.884 17.6477C340.795 17.4112 341.749 17.2448 342.748 17.1484C343.922 17.0258 344.868 16.9119 345.586 16.8068C346.304 16.6929 346.825 16.5265 347.15 16.3075C347.474 16.0885 347.636 15.7644 347.636 15.3352V15.2564C347.636 14.4242 347.373 13.7804 346.847 13.3249C346.33 12.8694 345.595 12.6417 344.64 12.6417C343.633 12.6417 342.831 12.8651 342.235 13.3118C341.64 13.7498 341.246 14.3016 341.053 14.9673L335.876 14.5469C336.139 13.3205 336.656 12.2607 337.426 11.3672C338.197 10.465 339.192 9.77296 340.409 9.29119C341.635 8.80066 343.054 8.5554 344.666 8.5554C345.787 8.5554 346.86 8.68679 347.885 8.94957C348.919 9.21236 349.834 9.61967 350.631 10.1715C351.437 10.7234 352.072 11.4329 352.537 12.3001C353.001 13.1585 353.233 14.1877 353.233 15.3878V29H347.925V26.2013H347.767C347.443 26.832 347.009 27.3883 346.466 27.87C345.923 28.343 345.271 28.7153 344.509 28.9869C343.746 29.2496 342.866 29.381 341.868 29.381ZM343.471 25.5181C344.294 25.5181 345.021 25.3561 345.652 25.032C346.282 24.6991 346.777 24.2524 347.136 23.6918C347.496 23.1312 347.675 22.4961 347.675 21.7866V19.6449C347.5 19.7588 347.259 19.8639 346.952 19.9602C346.655 20.0478 346.317 20.131 345.941 20.2099C345.564 20.2799 345.187 20.3456 344.811 20.407C344.434 20.4595 344.092 20.5077 343.786 20.5515C343.129 20.6478 342.555 20.8011 342.065 21.0114C341.574 21.2216 341.193 21.5063 340.922 21.8654C340.65 22.2158 340.514 22.6538 340.514 23.1793C340.514 23.9414 340.79 24.5239 341.342 24.9268C341.903 25.321 342.612 25.5181 343.471 25.5181ZM342.866 6.21662L345.652 0.238281H350.828L346.821 6.21662H342.866ZM368.31 8.81818V13.0227H356.156V8.81818H368.31ZM358.916 3.98295H364.513V22.7983C364.513 23.3151 364.592 23.718 364.749 24.0071C364.907 24.2874 365.126 24.4845 365.406 24.5984C365.695 24.7122 366.028 24.7692 366.405 24.7692C366.668 24.7692 366.931 24.7473 367.193 24.7035C367.456 24.6509 367.658 24.6115 367.798 24.5852L368.678 28.7504C368.398 28.8379 368.004 28.9387 367.496 29.0526C366.988 29.1752 366.37 29.2496 365.643 29.2759C364.294 29.3285 363.111 29.1489 362.095 28.7372C361.088 28.3255 360.304 27.6861 359.743 26.8189C359.183 25.9517 358.907 24.8568 358.916 23.5341V3.98295ZM371.956 29V8.81818H377.554V29H371.956ZM374.768 6.21662C373.936 6.21662 373.222 5.9407 372.626 5.38885C372.04 4.82824 371.746 4.15814 371.746 3.37855C371.746 2.60772 372.04 1.94638 372.626 1.39453C373.222 0.833924 373.936 0.553621 374.768 0.553621C375.6 0.553621 376.31 0.833924 376.897 1.39453C377.492 1.94638 377.79 2.60772 377.79 3.37855C377.79 4.15814 377.492 4.82824 376.897 5.38885C376.31 5.9407 375.6 6.21662 374.768 6.21662ZM391.156 29.3942C389.089 29.3942 387.311 28.9562 385.821 28.0803C384.341 27.1955 383.202 25.9692 382.405 24.4013C381.617 22.8333 381.223 21.0289 381.223 18.9879C381.223 16.9207 381.621 15.1075 382.418 13.5483C383.224 11.9803 384.367 10.7584 385.848 9.88246C387.328 8.99775 389.089 8.5554 391.13 8.5554C392.89 8.5554 394.432 8.87512 395.755 9.51456C397.077 10.154 398.124 11.0518 398.895 12.2081C399.666 13.3643 400.091 14.7221 400.169 16.2812H394.888C394.739 15.2739 394.344 14.4637 393.705 13.8505C393.074 13.2286 392.247 12.9176 391.222 12.9176C390.354 12.9176 389.597 13.1541 388.949 13.6271C388.309 14.0914 387.81 14.7702 387.451 15.6637C387.092 16.5572 386.912 17.639 386.912 18.9091C386.912 20.1967 387.087 21.2917 387.438 22.1939C387.797 23.0961 388.3 23.7837 388.949 24.2567C389.597 24.7298 390.354 24.9663 391.222 24.9663C391.861 24.9663 392.435 24.8349 392.943 24.5721C393.46 24.3093 393.885 23.9283 394.217 23.429C394.559 22.9209 394.782 22.3121 394.888 21.6026H400.169C400.082 23.1443 399.661 24.502 398.908 25.6758C398.164 26.8408 397.134 27.7518 395.82 28.4087C394.506 29.0657 392.952 29.3942 391.156 29.3942ZM412.872 29.3942C410.831 29.3942 409.066 28.9606 407.577 28.0934C406.096 27.2174 404.953 25.9999 404.147 24.4407C403.342 22.8728 402.939 21.0552 402.939 18.9879C402.939 16.9032 403.342 15.0812 404.147 13.522C404.953 11.9541 406.096 10.7365 407.577 9.86932C409.066 8.99337 410.831 8.5554 412.872 8.5554C414.913 8.5554 416.673 8.99337 418.154 9.86932C419.643 10.7365 420.79 11.9541 421.596 13.522C422.402 15.0812 422.805 16.9032 422.805 18.9879C422.805 21.0552 422.402 22.8728 421.596 24.4407C420.79 25.9999 419.643 27.2174 418.154 28.0934C416.673 28.9606 414.913 29.3942 412.872 29.3942ZM412.898 25.0582C413.827 25.0582 414.602 24.7955 415.224 24.2699C415.846 23.7356 416.314 23.0085 416.63 22.0888C416.954 21.169 417.116 20.1223 417.116 18.9485C417.116 17.7747 416.954 16.728 416.63 15.8082C416.314 14.8885 415.846 14.1615 415.224 13.6271C414.602 13.0928 413.827 12.8256 412.898 12.8256C411.961 12.8256 411.172 13.0928 410.533 13.6271C409.902 14.1615 409.425 14.8885 409.101 15.8082C408.786 16.728 408.628 17.7747 408.628 18.9485C408.628 20.1223 408.786 21.169 409.101 22.0888C409.425 23.0085 409.902 23.7356 410.533 24.2699C411.172 24.7955 411.961 25.0582 412.898 25.0582ZM443.237 14.5732L438.112 14.8885C438.025 14.4505 437.836 14.0563 437.547 13.706C437.258 13.3468 436.877 13.0621 436.404 12.8519C435.94 12.6329 435.384 12.5234 434.735 12.5234C433.868 12.5234 433.137 12.7074 432.541 13.0753C431.946 13.4344 431.648 13.9162 431.648 14.5206C431.648 15.0024 431.84 15.4097 432.226 15.7425C432.611 16.0754 433.273 16.3426 434.21 16.544L437.863 17.2798C439.825 17.6828 441.288 18.331 442.251 19.2244C443.215 20.1179 443.696 21.2917 443.696 22.7457C443.696 24.0684 443.307 25.229 442.527 26.2276C441.756 27.2262 440.696 28.0058 439.347 28.5664C438.007 29.1183 436.461 29.3942 434.709 29.3942C432.038 29.3942 429.909 28.8379 428.324 27.7255C426.747 26.6043 425.823 25.0801 425.551 23.1531L431.056 22.864C431.223 23.6786 431.626 24.3005 432.265 24.7298C432.905 25.1502 433.724 25.3604 434.722 25.3604C435.703 25.3604 436.492 25.1721 437.087 24.7955C437.692 24.41 437.998 23.9151 438.007 23.3107C437.998 22.8027 437.784 22.3866 437.363 22.0625C436.943 21.7296 436.295 21.4756 435.419 21.3004L431.924 20.604C429.953 20.2099 428.486 19.5266 427.522 18.5543C426.567 17.582 426.09 16.3426 426.09 14.8359C426.09 13.5395 426.44 12.4227 427.141 11.4854C427.85 10.5482 428.845 9.82552 430.124 9.31747C431.411 8.80942 432.918 8.5554 434.643 8.5554C437.192 8.5554 439.198 9.0941 440.661 10.1715C442.133 11.2489 442.991 12.7161 443.237 14.5732Z" fill="#5F605E"/>
</svg>

